<svg xmlns="http://www.w3.org/2000/svg" viewBox="0 0 335 185"><defs><style>.cls-1{fill:#75092a;}.cls-2{fill:#9e1f41;}.cls-3{fill:#c52c54;}.cls-4{fill:#008690;}.cls-5{fill:#f8c09c;}.cls-6{fill:#a62245;}.cls-7{fill:#0b3442;}.cls-8{fill:#00565c;}.cls-9{fill:#f2ab83;}.cls-10{fill:#ab6a5d;}</style></defs><title>Asset 4</title><g id="Layer_2" data-name="Layer 2"><g id="face"><rect class="cls-1" x="260" y="108" width="46" height="16" rx="8" ry="8"/><rect class="cls-2" x="255" y="115" width="46" height="16" rx="8" ry="8" transform="translate(98.74 -122.52) rotate(30)"/><path class="cls-3" d="M61,142a43.13,43.13,0,0,0,43,43H233a43.13,43.13,0,0,0,43-43V108H61Z"/><path class="cls-4" d="M276,43A43.13,43.13,0,0,0,233,0H104A43.13,43.13,0,0,0,61,43V78H276Z"/><rect class="cls-5" x="61" y="78" width="215" height="30"/><rect class="cls-6" x="82" y="123.91" width="126" height="4.18" rx="2" ry="2"/><rect class="cls-6" x="132" y="134" width="112" height="4" rx="2" ry="2"/><polygon class="cls-7" points="210.92 71 196.83 71 164.88 71 121 71 196.83 145 196.83 102.19 210.92 115.93 210.92 71"/><rect class="cls-8" y="70" width="335" height="8"/><path class="cls-5" d="M290.15,93.55c-1.73,7-7.83,12.53-14.07,13.18-6.54.69-12.08-4.08-12.08-11.61C264,86.31,271.31,78,279.83,78,287.84,78,292.15,85.49,290.15,93.55Z"/><path class="cls-9" d="M282,94a5.76,5.76,0,0,1-4.87,4.76c-2.32.18-4.06-1.67-3.83-4.24a5.7,5.7,0,0,1,5.06-5.18C280.83,89.27,282.43,91.42,282,94Z"/><path class="cls-5" d="M47.48,93.55c1.73,7,7.83,12.53,14.08,13.18,6.54.69,12.08-4.08,12.08-11.61C73.64,86.31,66.33,78,57.81,78,49.79,78,45.49,85.49,47.48,93.55Z"/><path class="cls-9" d="M55.65,94a5.77,5.77,0,0,0,4.87,4.76c2.33.18,4.06-1.67,3.83-4.24a5.7,5.7,0,0,0-5.06-5.18C56.81,89.27,55.21,91.42,55.65,94Z"/></g><g id="leftEye"><circle class="cls-10" cx="111.5" cy="92.5" r="6.5"/></g><g id="rightEye"><circle class="cls-10" cx="230.5" cy="93.5" r="6.5"/></g></g></svg>