<svg xmlns="http://www.w3.org/2000/svg" viewBox="0 0 57.67 81.07"><defs><style>.cls-1{fill:#b3b3b3;}.cls-2{fill:#84754f;}</style></defs><title>Asset 2</title><g id="Layer_2" data-name="Layer 2"><g id="Layer_1-2" data-name="Layer 1"><path class="cls-1" d="M6.66.62A4.34,4.34,0,0,0,6.5,0C6.57.21,6.61.41,6.66.62Z"/><path class="cls-1" d="M57.43,26a29.34,29.34,0,0,0-15-20.32c4.41,3,6.41,9,6.28,14.65s-2,11-3.94,16.22a28.31,28.31,0,0,0-30.84.1C11,33.13,8.11,29.55,6.47,25.24a52.12,52.12,0,0,1-2.1-8.51C3.3,11.4,7.87,5.8,6.66.62,7.78,6.58-1.21,16.3.14,22.75,1.4,28.78,4,34.4,5.48,40.42c.72,3,.78,6.34,2.06,9.2,1.58,3.53,5.32,5,6.45,7.11,3.06,5.67,2.36,16.46,4.3,23.62,6.19-2.56,13.77,3,19.55-.47,3.08-1.87,4.53-5.83,5-9.59s.18-7.62.9-11.34a41.59,41.59,0,0,1,2.2-7q1.43-3.69,2.83-7.39C50.37,40.39,52,36.08,55,32.86a9.56,9.56,0,0,0,2.41-3.21A7.17,7.17,0,0,0,57.43,26ZM30.5,56.11c1,1.36,2.14,3,1.77,4.63a1.65,1.65,0,0,1-.45.89,1.6,1.6,0,0,1-2-.1,4.69,4.69,0,0,1-1.19-1.84,4,4,0,0,1-.31,1.39,1.37,1.37,0,0,1-1.12.8c-.68,0-1.21-.68-1.89-.74-1.12-.11.84-5.34,1.12-5.8C28,52.85,29,54.12,30.5,56.11ZM17,49.73a1.29,1.29,0,0,1-.39-.19,1.18,1.18,0,0,1-.28-.53,10.06,10.06,0,0,1-.43-3.89c.1-1.19.6-2.56,1.76-2.84a3.26,3.26,0,0,1,.88-.05c1.82.07,5-.54,6.06,1.35.73,1.27.64,3.82.67,5.21a2.52,2.52,0,0,1-.13,1.06,2,2,0,0,1-1.06,1c-1.68.77-3.63.15-5.37-.47ZM35.3,73.06a1.07,1.07,0,0,1-.12.56.8.8,0,0,1-.54.3A1.49,1.49,0,0,1,33,72.81c-.13-.63.14-1.36-.23-1.87-.49-.68-1.54-.38-2.28,0a5.65,5.65,0,0,1-.1,2,1.86,1.86,0,0,1-1.33,1.33c-.09-.87-.19-1.74-.29-2.61a2.62,2.62,0,0,0-.39-1.33.9.9,0,0,0-1.23-.23,13.35,13.35,0,0,1-.38,4.58,1.41,1.41,0,0,1-1.43-.75A7.46,7.46,0,0,1,25.06,72c-.14-.61-.84-1.2-1.35-.83l-.18,2.15a1.09,1.09,0,0,1-.13.53c-.29.46-1,.29-1.49.06a43.07,43.07,0,0,1-.26-6.1c1.65,2.7,2.39-1.56,3.4-1.86.6-.17.94.67,1,1.29.14.94.61,2.07,1.56,2.08.14-.68.27-1.36.41-2h.84a3.66,3.66,0,0,1,.65-1.89,1.26,1.26,0,0,1,1.78-.24c.52.54.27,1.55.84,2s1.58,0,1.86-.77a9.13,9.13,0,0,0,.25-2.34l1.22.07ZM39.76,49a1.11,1.11,0,0,1-.29.53,1.35,1.35,0,0,1-.38.19l-1.71.61c-1.74.62-3.7,1.24-5.38.47a2,2,0,0,1-1.05-1,2.7,2.7,0,0,1-.14-1.06c0-1.39,0-3.94.67-5.21,1.08-1.89,4.24-1.28,6.07-1.35a3.16,3.16,0,0,1,.87.05c1.16.28,1.67,1.65,1.77,2.84A10.26,10.26,0,0,1,39.76,49Z"/><path class="cls-2" d="M25.28,61.14c.68.06,1.21.74,1.89.74a1.37,1.37,0,0,0,1.12-.8,4,4,0,0,0,.31-1.39,4.69,4.69,0,0,0,1.19,1.84,1.6,1.6,0,0,0,2,.1,1.65,1.65,0,0,0,.45-.89c.37-1.67-.73-3.27-1.77-4.63-1.51-2-2.55-3.26-4.1-.77C26.12,55.8,24.16,61,25.28,61.14Z"/><path class="cls-2" d="M24,50.81a2,2,0,0,0,1.06-1,2.52,2.52,0,0,0,.13-1.06c0-1.39.06-3.94-.67-5.21-1.08-1.89-4.24-1.28-6.06-1.35a3.26,3.26,0,0,0-.88.05c-1.16.28-1.66,1.65-1.76,2.84A10.06,10.06,0,0,0,16.28,49a1.18,1.18,0,0,0,.28.53,1.29,1.29,0,0,0,.39.19l1.71.61C20.4,51,22.35,51.58,24,50.81Z"/><path class="cls-2" d="M38.42,42.28a3.16,3.16,0,0,0-.87-.05c-1.83.07-5-.54-6.07,1.35-.72,1.27-.63,3.82-.67,5.21A2.7,2.7,0,0,0,31,49.85a2,2,0,0,0,1.05,1c1.68.77,3.64.15,5.38-.47l1.71-.61a1.35,1.35,0,0,0,.38-.19,1.11,1.11,0,0,0,.29-.53,10.26,10.26,0,0,0,.43-3.89C40.09,43.93,39.58,42.56,38.42,42.28Z"/><path class="cls-2" d="M34,66.46c-.28.74-1.27,1.29-1.86.77s-.32-1.51-.84-2a1.26,1.26,0,0,0-1.78.24,3.66,3.66,0,0,0-.65,1.89h-.84c-.14.68-.27,1.36-.41,2-.95,0-1.42-1.14-1.56-2.08-.09-.62-.43-1.46-1-1.29-1,.3-1.75,4.56-3.4,1.86a43.07,43.07,0,0,0,.26,6.1c.5.23,1.2.4,1.49-.06a1.09,1.09,0,0,0,.13-.53l.18-2.15c.51-.37,1.21.22,1.35.83a7.46,7.46,0,0,0,.31,1.84,1.41,1.41,0,0,0,1.43.75,13.35,13.35,0,0,0,.38-4.58.9.9,0,0,1,1.23.23,2.62,2.62,0,0,1,.39,1.33c.1.87.2,1.74.29,2.61a1.86,1.86,0,0,0,1.33-1.33,5.65,5.65,0,0,0,.1-2c.74-.36,1.79-.66,2.28,0,.37.51.1,1.24.23,1.87a1.49,1.49,0,0,0,1.61,1.11.8.8,0,0,0,.54-.3,1.07,1.07,0,0,0,.12-.56l.19-8.87-1.22-.07A9.13,9.13,0,0,1,34,66.46Z"/></g></g></svg>