<svg xmlns="http://www.w3.org/2000/svg" viewBox="0 0 478.18 326"><defs><style>.cls-1{fill:#0b3442;}.cls-2{fill:#93a5af;}.cls-3{fill:#ab6a5d;}.cls-4{fill:#d68574;}.cls-5{fill:#bd7566;}.cls-6{fill:#b4c8d3;}.cls-7{fill:#ee9380;}.cls-8{fill:#f8c09c;}.cls-9{fill:#75092a;}.cls-10{fill:#9e1f41;}.cls-11{fill:#c52c54;}.cls-12{fill:#008690;}.cls-13{fill:#a62245;}.cls-14{fill:#00565c;}.cls-15{fill:#f2ab83;}</style></defs><title>CowBoy_1</title><g id="Layer_2" data-name="Layer 2"><g id="leftFeet"><rect class="cls-1" x="127.81" y="239.2" width="86.02" height="47" rx="23.5" ry="23.5" transform="translate(474.32 340.66) rotate(137.44)"/><rect class="cls-2" x="173.35" y="306" width="19" height="7"/><circle class="cls-2" cx="194.85" cy="309.5" r="8.5"/><path class="cls-1" d="M178.67,287l.1-7.13a23.58,23.58,0,0,0-23.18-23.82h0a23.58,23.58,0,0,0-23.82,23.18l-.1,7.75h46.68Z"/><path class="cls-3" d="M178.35,287H131.67l-.52,38h47l.51-38Z"/><path class="cls-4" d="M137.35,298a27,27,0,0,0-27,27h54A27,27,0,0,0,137.35,298Z"/></g><g id="rightFeet"><rect class="cls-1" x="262.18" y="240.2" width="86.02" height="47" rx="23.5" ry="23.5" transform="translate(258.75 -136.96) rotate(42.56)"/><rect class="cls-2" x="283.66" y="307" width="19" height="7" transform="translate(586.32 621) rotate(-180)"/><circle class="cls-2" cx="281.16" cy="310.5" r="8.5"/><path class="cls-1" d="M297.34,288l-.1-7.13a23.58,23.58,0,0,1,23.18-23.82h0a23.57,23.57,0,0,1,23.82,23.18l.1,7.75H297.66Z"/><path class="cls-3" d="M297.66,288h46.68l.52,38h-47l-.51-38Z"/><path class="cls-4" d="M338.66,299a27,27,0,0,1,27,27h-54A27,27,0,0,1,338.66,299Z"/></g><g id="torso"><path class="cls-1" d="M173.35,240.5a25.58,25.58,0,0,0,25.5,25.5h80a25.57,25.57,0,0,0,25.5-25.5V221h-131Z"/><path class="cls-1" d="M304.35,184.5a25.57,25.57,0,0,0-25.5-25.5h-80a25.57,25.57,0,0,0-25.5,25.5V198h131Z"/><rect class="cls-5" x="173.35" y="198" width="131" height="23"/><rect class="cls-6" x="210.35" y="195" width="55" height="30" rx="12" ry="12"/></g><g id="leftArm"><rect class="cls-1" x="96.48" y="119" width="106.7" height="47" rx="23.5" ry="23.5" transform="translate(299.66 285) rotate(-180)"/><rect class="cls-1" x="49.21" y="135.19" width="99.45" height="47" rx="23.5" ry="23.5" transform="translate(273.65 225.39) rotate(142.84)"/><rect class="cls-7" x="33.77" y="181.77" width="40.88" height="22.89" rx="10.73" ry="10.73" transform="translate(220.01 306.29) rotate(139.97)"/><rect class="cls-8" x="-3.36" y="189.21" width="73.21" height="44.73" rx="22.36" ry="22.36" transform="translate(194.79 352.19) rotate(139.97)"/><rect class="cls-8" x="50.31" y="210.77" width="19.62" height="13.43" rx="6.29" ry="6.29" transform="translate(-67.74 403.41) rotate(-130.03)"/></g><g id="rightArm"><rect class="cls-1" x="275" y="119" width="106.7" height="47" rx="23.5" ry="23.5"/><rect class="cls-1" x="329.52" y="135.19" width="99.45" height="47" rx="23.5" ry="23.5" transform="translate(172.88 -196.87) rotate(37.16)"/><rect class="cls-7" x="403.53" y="181.77" width="40.88" height="22.89" rx="10.73" ry="10.73" transform="translate(223.63 -227.43) rotate(40.03)"/><rect class="cls-8" x="408.33" y="189.21" width="73.21" height="44.73" rx="22.36" ry="22.36" transform="translate(240.35 -236.62) rotate(40.03)"/><rect class="cls-8" x="408.25" y="210.77" width="19.62" height="13.43" rx="6.29" ry="6.29" transform="matrix(0.64, -0.77, 0.77, 0.64, -17.37, 397.69)"/></g><g id="face"><rect class="cls-9" x="330.35" y="108" width="46" height="16" rx="8" ry="8"/><rect class="cls-10" x="325.35" y="115" width="46" height="16" rx="8" ry="8" transform="translate(108.17 -157.7) rotate(30)"/><path class="cls-11" d="M131.35,142a43.13,43.13,0,0,0,43,43h129a43.13,43.13,0,0,0,43-43V108h-215Z"/><path class="cls-12" d="M346.35,43a43.13,43.13,0,0,0-43-43h-129a43.13,43.13,0,0,0-43,43V78h215Z"/><rect class="cls-8" x="131.35" y="78" width="215" height="30"/><rect class="cls-13" x="152.35" y="123.91" width="126" height="4.18" rx="2" ry="2"/><rect class="cls-13" x="202.35" y="134" width="112" height="4" rx="2" ry="2"/><polygon class="cls-1" points="281.27 71 267.19 71 235.23 71 191.35 71 267.19 145 267.19 102.19 281.27 115.93 281.27 71"/><rect class="cls-14" x="70.35" y="70" width="335" height="8"/><path class="cls-8" d="M360.5,93.55c-1.73,7-7.83,12.53-14.07,13.18-6.54.69-12.08-4.08-12.08-11.61,0-8.81,7.31-17.12,15.83-17.12C358.19,78,362.5,85.49,360.5,93.55Z"/><path class="cls-15" d="M352.33,94a5.75,5.75,0,0,1-4.86,4.76c-2.33.18-4.06-1.67-3.84-4.24a5.7,5.7,0,0,1,5.07-5.18C351.18,89.27,352.78,91.42,352.33,94Z"/><path class="cls-8" d="M117.84,93.55c1.73,7,7.83,12.53,14.07,13.18,6.54.69,12.08-4.08,12.08-11.61C144,86.31,136.68,78,128.16,78,120.14,78,115.84,85.49,117.84,93.55Z"/><path class="cls-15" d="M126,94a5.75,5.75,0,0,0,4.86,4.76c2.33.18,4.06-1.67,3.84-4.24a5.7,5.7,0,0,0-5.07-5.18C127.16,89.27,125.56,91.42,126,94Z"/></g><g id="leftEye"><circle class="cls-3" cx="181.85" cy="92.5" r="6.5"/></g><g id="rightEye"><circle class="cls-3" cx="300.85" cy="93.5" r="6.5"/></g></g></svg>